<?xml version="1.0" standalone="no"?>
<!DOCTYPE svg PUBLIC "-//W3C//DTD SVG 20010904//EN"
 "http://www.w3.org/TR/2001/REC-SVG-20010904/DTD/svg10.dtd">
<svg version="1.0" xmlns="http://www.w3.org/2000/svg"
 width="1200.000000pt" height="1200.000000pt" viewBox="0 0 1200.000000 1200.000000"
 preserveAspectRatio="xMidYMid meet">

<g transform="translate(0.000000,1200.000000) scale(0.100000,-0.100000)"
fill="#000000" stroke="none">
<path d="M6691 9749 c-164 -82 -242 -236 -225 -444 l7 -85 -47 0 c-39 0 -57
-8 -116 -47 -65 -45 -69 -50 -70 -86 0 -44 2 -43 89 22 44 33 63 41 97 41 24
0 46 -4 49 -10 3 -5 35 -268 71 -582 68 -603 335 -2921 503 -4368 55 -470 97
-857 94 -860 -2 -3 -52 -4 -109 -3 -107 1 -120 -4 -91 -39 12 -15 118 -38 179
-38 l35 0 11 -82 c22 -152 124 -313 234 -369 43 -22 118 -50 118 -45 0 2 -25
20 -56 40 -113 75 -214 201 -243 303 l-9 31 107 21 c58 11 682 133 1385 271
704 137 1282 252 1284 255 8 8 -676 5397 -699 5506 -51 250 -185 430 -362 485
-41 12 -261 26 -1027 65 -536 26 -1014 48 -1061 49 -76 0 -93 -3 -148 -31z
m1313 -254 c391 -17 386 -16 386 -86 0 -30 -6 -42 -25 -55 -23 -15 -54 -15
-407 0 -211 9 -395 16 -410 16 -58 0 -91 79 -51 122 20 23 45 23 507 3z m488
-80 c23 -100 23 -117 -4 -113 -18 3 -24 15 -40 87 -18 88 -17 104 10 99 12 -2
22 -25 34 -73z m-1582 -321 c0 -41 -4 -63 -10 -59 -18 11 -12 125 7 125 2 0 3
-30 3 -66z m-30 -4 c0 -27 -4 -50 -10 -50 -5 0 -10 23 -10 50 0 28 5 50 10 50
6 0 10 -22 10 -50z m-30 -4 c0 -25 -4 -48 -10 -51 -6 -4 -10 13 -10 44 0 28 5
51 10 51 6 0 10 -20 10 -44z m-43 -33 c-2 -16 -4 -5 -4 22 0 28 2 40 4 28 2
-13 2 -35 0 -50z m-27 22 c0 -19 -4 -35 -10 -35 -11 0 -14 53 -3 63 11 12 13
8 13 -28z m-30 -10 c0 -13 -4 -27 -10 -30 -6 -4 -10 8 -10 30 0 22 4 34 10 30
6 -3 10 -17 10 -30z m1995 -25 c0 -25 -1 -25 -96 -28 -82 -2 -98 0 -103 14
-13 35 12 45 108 42 90 -3 91 -3 91 -28z m333 -1072 c27 -27 10 -55 -113 -178
l-124 -125 -11 -625 c-11 -611 -12 -625 -32 -642 -11 -10 -25 -18 -32 -18 -6
0 -205 -27 -441 -59 -298 -41 -435 -57 -447 -50 -21 12 -24 61 -4 78 7 6 201
37 430 68 l416 57 0 139 0 139 -22 -5 c-13 -3 -245 -40 -516 -83 -432 -67
-495 -75 -508 -62 -8 8 -59 131 -113 274 -152 400 -141 370 -128 388 8 10 215
67 607 167 327 83 619 157 648 165 l52 15 0 46 c0 46 1 47 137 185 140 141
168 159 201 126z m-384 -1718 c35 -31 66 -101 66 -150 0 -44 -21 -93 -53 -127
-26 -27 -38 -33 -74 -33 -102 0 -167 150 -114 266 36 80 112 99 175 44z m-504
-87 c96 -66 107 -241 20 -303 -46 -33 -96 -27 -140 18 -75 75 -79 201 -9 272
36 35 89 41 129 13z m1200 -1943 c0 -38 -4 -50 -15 -50 -9 0 -15 -9 -15 -23 0
-21 -6 -25 -65 -33 -36 -6 -68 -8 -70 -5 -3 2 -5 26 -5 52 0 32 5 49 15 53 8
3 15 14 15 25 0 22 18 27 93 30 l47 1 0 -50z m-742 -128 c29 -22 33 -30 30
-66 l-3 -41 -75 0 -75 0 -3 34 c-3 28 3 40 34 72 20 21 42 35 48 32 6 -4 26
-18 44 -31z m-771 -99 c57 -13 71 -89 23 -125 -29 -21 -100 -36 -100 -21 0 6
20 18 45 28 58 22 73 47 45 75 -22 22 -37 25 -42 9 -2 -7 -12 -7 -32 1 -28 10
-28 11 -10 31 11 12 24 17 33 13 9 -4 26 -9 38 -11z"/>
<path d="M7530 9445 c0 -9 6 -18 13 -20 9 -3 729 -35 785 -35 6 0 12 9 12 20
0 12 -7 20 -17 20 -10 0 -164 7 -343 15 -424 19 -450 19 -450 0z"/>
<path d="M8545 7478 c-88 -23 -162 -43 -164 -45 -4 -3 10 -130 26 -234 l5 -36
154 37 c85 21 157 39 159 42 2 2 7 66 11 141 7 131 6 137 -12 136 -10 0 -91
-19 -179 -41z"/>
<path d="M8101 7364 c-90 -23 -165 -45 -168 -48 -4 -4 63 -246 69 -251 4 -3
321 74 326 79 2 2 -4 63 -14 135 -14 107 -20 131 -33 130 -9 -1 -90 -21 -180
-45z"/>
<path d="M7680 7257 c-85 -22 -156 -41 -158 -43 -4 -2 85 -234 92 -241 6 -6
306 67 306 74 0 4 -34 126 -66 236 -6 21 11 23 -174 -26z"/>
<path d="M8575 7121 l-150 -37 3 -35 c4 -49 32 -252 35 -255 1 -2 62 7 135 18
l132 21 0 164 c0 89 -1 162 -2 162 -2 -1 -70 -18 -153 -38z"/>
<path d="M8169 7021 l-146 -36 35 -125 c19 -69 36 -126 36 -126 2 -3 277 43
281 47 2 3 -4 65 -13 139 -13 102 -21 135 -32 136 -8 1 -81 -14 -161 -35z"/>
<path d="M7777 6925 c-71 -18 -130 -35 -132 -36 -1 -2 16 -51 39 -109 l41
-106 138 22 c77 13 141 25 144 28 3 3 -9 57 -27 121 -29 101 -35 115 -54 114
-12 0 -79 -16 -149 -34z"/>
<path d="M9318 4253 c-35 -3 -48 -8 -48 -19 0 -12 9 -15 42 -12 38 3 43 0 49
-22 6 -20 7 -17 8 18 1 23 0 41 -1 40 -2 -1 -24 -3 -50 -5z"/>
<path d="M9273 4203 c-31 -4 -33 -7 -33 -43 l0 -39 38 5 c59 9 62 11 62 49 0
37 2 36 -67 28z"/>
<path d="M8566 4082 c-15 -16 -26 -40 -26 -55 0 -26 2 -27 60 -27 l60 0 0 31
c0 30 -12 46 -51 69 -12 7 -23 2 -43 -18z"/>
<path d="M5592 8299 c-67 -34 -236 -199 -219 -215 3 -3 88 -16 189 -30 l183
-24 16 22 16 21 269 -22 c148 -12 274 -21 281 -21 13 0 6 107 -8 126 -6 7 -79
14 -197 18 -103 3 -217 9 -254 13 -67 6 -68 6 -68 35 0 21 -11 41 -34 64 -29
29 -41 34 -82 34 -30 0 -66 -8 -92 -21z"/>
<path d="M3339 8217 l-126 -71 -7 -116 c-9 -137 -17 -182 -35 -188 -11 -4 -13
12 -7 89 4 52 10 115 13 142 6 52 -4 60 -37 27 -11 -11 -26 -20 -32 -20 -7 0
-85 -40 -173 -89 l-160 -89 1 -92 c0 -78 -2 -90 -15 -88 -12 2 -18 21 -23 72
-3 37 -9 70 -12 73 -8 8 -216 -110 -216 -123 0 -6 11 -165 25 -354 26 -360 26
-359 -17 -360 -9 0 -41 -5 -70 -11 l-52 -12 574 -143 c507 -127 582 -144 632
-139 31 3 175 28 320 56 145 28 329 63 411 78 81 15 149 30 151 32 8 7 29 209
23 215 -3 3 -94 32 -203 64 -108 32 -201 65 -205 72 -13 21 45 27 286 28 121
1 231 5 245 9 22 6 26 14 33 70 4 35 6 65 4 67 -1 2 -133 -21 -292 -50 -160
-29 -291 -52 -293 -51 -1 1 -42 205 -90 453 -49 249 -91 454 -94 458 -4 3 -69
-4 -145 -16 -91 -14 -139 -17 -141 -10 -3 9 -136 91 -144 89 -2 -1 -60 -33
-129 -72z"/>
<path d="M6365 8053 c3 -16 28 -219 56 -453 77 -656 288 -2410 295 -2452 5
-33 9 -38 33 -38 34 0 101 45 101 69 0 10 -45 389 -100 842 -55 453 -129 1071
-165 1372 l-65 548 -30 38 c-31 38 -67 68 -107 90 -21 11 -22 10 -18 -16z"/>
<path d="M2580 6790 c0 -60 30 -463 36 -475 2 -5 2 66 -1 159 -3 93 -5 211 -5
263 0 76 -3 93 -15 93 -11 0 -15 -11 -15 -40z"/>
<path d="M2740 6537 c0 -141 4 -258 9 -261 11 -7 265 -75 268 -72 3 3 33 449
33 486 0 25 -6 27 -137 59 -76 19 -146 36 -155 39 -17 4 -18 -13 -18 -251z"/>
<path d="M4287 6726 c-92 -18 -169 -35 -171 -37 -2 -2 -7 -124 -11 -271 l-7
-268 23 0 c25 0 272 31 277 35 3 2 72 541 72 563 0 6 -3 12 -7 11 -5 -1 -83
-16 -176 -33z"/>
<path d="M3179 6678 c-3 -7 -35 -504 -32 -507 6 -9 296 -82 301 -76 10 9 51
499 44 506 -6 5 -292 79 -307 79 -3 0 -6 -1 -6 -2z"/>
<path d="M3880 6650 c-52 -10 -131 -26 -176 -35 l-80 -17 -18 -206 c-9 -114
-20 -230 -23 -258 l-5 -51 73 9 c238 28 314 39 320 45 10 11 22 533 12 532 -4
0 -51 -9 -103 -19z"/>
<path d="M2748 5908 c2 -128 5 -234 7 -236 1 -1 54 19 118 45 l116 48 6 50 c3
27 6 97 8 154 l2 105 -102 27 c-56 15 -115 30 -131 34 l-29 6 5 -233z"/>
<path d="M4290 6046 l-85 -10 69 -10 70 -11 -126 -48 -126 -49 -6 -166 c-3
-92 -9 -216 -12 -275 l-6 -108 114 7 c62 4 114 8 116 9 5 4 83 639 80 655 -3
13 -15 14 -88 6z"/>
<path d="M3135 6027 c-2 -7 -6 -58 -9 -115 l-6 -102 32 13 c18 8 87 35 153 62
123 50 143 60 133 71 -4 3 -72 23 -153 44 -103 28 -147 35 -150 27z"/>
<path d="M3740 5780 l-195 -78 -11 -124 c-6 -68 -11 -124 -10 -124 0 -1 66
-25 144 -54 138 -50 147 -52 213 -45 l69 7 0 67 c0 37 3 150 7 249 5 153 4
182 -8 181 -8 -1 -102 -36 -209 -79z"/>
<path d="M3325 5614 c-44 -18 -93 -34 -110 -34 -22 -1 -2 -11 75 -40 58 -22
106 -40 107 -40 5 0 14 90 11 116 l-3 30 -80 -32z"/>
<path d="M4165 5251 l-70 -6 88 -32 c48 -18 90 -33 93 -33 2 0 4 18 4 40 0 35
-3 40 -22 38 -13 -1 -54 -4 -93 -7z"/>
<path d="M5187 3938 c-18 -31 -40 -34 -89 -13 -13 5 -18 3 -18 -9 0 -24 45
-66 70 -66 28 0 70 43 70 72 0 42 -14 49 -33 16z"/>
<path d="M8708 3335 c-104 -23 -202 -48 -219 -55 -97 -40 -87 -194 14 -227 33
-11 57 -8 235 32 233 53 246 58 272 100 40 64 13 152 -55 181 -44 18 -28 20
-247 -31z m247 -30 c41 -40 30 -103 -22 -123 -15 -6 -112 -29 -215 -52 -146
-32 -192 -39 -207 -30 -42 22 -54 82 -23 119 13 17 60 31 212 65 107 25 203
45 213 45 10 1 29 -10 42 -24z"/>
<path d="M4320 3349 c-146 -31 -284 -92 -333 -147 -18 -20 -18 -20 0 -16 10 2
126 29 258 59 410 94 425 98 425 105 0 27 -222 25 -350 -1z"/>
<path d="M6829 3338 c-16 -39 -48 -47 -85 -24 -23 16 -24 16 -24 -9 0 -31 41
-75 70 -75 33 0 70 44 70 82 0 52 -14 63 -31 26z"/>
<path d="M8665 2977 c-672 -152 -1017 -233 -992 -235 57 -5 1949 414 2007 444
25 13 38 23 30 23 -8 -1 -478 -105 -1045 -232z"/>
<path d="M4360 3139 c-193 -46 -207 -51 -120 -44 76 6 215 39 274 65 59 27 31
23 -154 -21z"/>
<path d="M9695 3120 c-31 -15 -1234 -275 -1805 -391 -252 -51 -322 -61 -405
-62 -114 0 -193 22 -279 77 -67 43 -164 148 -215 232 -25 43 -42 63 -45 53 -3
-7 -36 -103 -74 -212 l-69 -197 82 -25 c178 -55 399 -76 573 -56 135 16 2302
516 2322 537 33 33 -34 68 -85 44z"/>
<path d="M3130 2976 c0 -51 73 -73 112 -34 20 20 20 22 3 34 -12 9 -23 10 -36
3 -14 -7 -27 -5 -49 6 -29 15 -30 15 -30 -9z"/>
<path d="M3825 2711 c-17 -34 -38 -38 -87 -16 -14 5 -18 2 -18 -12 0 -46 80
-72 114 -37 22 21 30 59 18 80 -9 15 -12 13 -27 -15z"/>
</g>
</svg>
